<mxfile host="app.diagrams.net" modified="2023-10-05T19:58:35.857Z" agent="Mozilla/5.0 (Windows NT 10.0; Win64; x64) AppleWebKit/537.36 (KHTML, like Gecko) Chrome/117.0.0.0 Safari/537.36" etag="93NjzbtiaPdo49rvwuf8" version="22.0.2" type="github">
  <diagram id="C5RBs43oDa-KdzZeNtuy" name="Page-1">
    <mxGraphModel dx="1434" dy="760" grid="0" gridSize="10" guides="1" tooltips="1" connect="1" arrows="1" fold="1" page="1" pageScale="1" pageWidth="827" pageHeight="1169" math="0" shadow="0">
      <root>
        <mxCell id="WIyWlLk6GJQsqaUBKTNV-0" />
        <mxCell id="WIyWlLk6GJQsqaUBKTNV-1" parent="WIyWlLk6GJQsqaUBKTNV-0" />
        <mxCell id="JN7dd42MbDgEGxTATaaX-2" value="" style="rounded=0;whiteSpace=wrap;html=1;" vertex="1" parent="WIyWlLk6GJQsqaUBKTNV-1">
          <mxGeometry x="100" y="193" width="640" height="438" as="geometry" />
        </mxCell>
        <mxCell id="KUYVFX4BnLb6LtAk-J63-66" value="&lt;b&gt;Class: - Initial_Temp(&lt;/b&gt;node list&lt;b&gt;)&lt;/b&gt;" style="rounded=0;whiteSpace=wrap;html=1;" parent="WIyWlLk6GJQsqaUBKTNV-1" vertex="1">
          <mxGeometry x="100" y="65" width="640" height="30" as="geometry" />
        </mxCell>
        <mxCell id="KUYVFX4BnLb6LtAk-J63-67" value="&lt;span style=&quot;&quot;&gt;&lt;span style=&quot;white-space: pre;&quot;&gt;&amp;nbsp;&amp;nbsp;&amp;nbsp;&amp;nbsp;&lt;/span&gt;&lt;/span&gt;&amp;nbsp;&lt;br&gt;&lt;span style=&quot;&quot;&gt;&lt;span style=&quot;white-space: pre;&quot;&gt;&amp;nbsp;&amp;nbsp;&amp;nbsp;&amp;nbsp;&lt;/span&gt;&lt;/span&gt;&lt;b&gt;&lt;u&gt;self.T&lt;/u&gt;&lt;/b&gt; = Initial temperature&lt;br&gt;&lt;span style=&quot;&quot;&gt;&lt;span style=&quot;white-space: pre;&quot;&gt;&amp;nbsp;&amp;nbsp;&amp;nbsp;&amp;nbsp;&lt;/span&gt;&lt;/span&gt;&lt;b&gt;self.s &lt;/b&gt;= Analytical position of the interface at time t&lt;b&gt;&lt;br&gt;&lt;/b&gt;&lt;span style=&quot;&quot;&gt;&lt;span style=&quot;white-space: pre;&quot;&gt;&amp;nbsp;&amp;nbsp;&amp;nbsp;&amp;nbsp;&lt;/span&gt;&lt;/span&gt;&lt;u style=&quot;font-weight: bold;&quot;&gt;self.s_array&lt;/u&gt;&amp;nbsp;= Evolution of the interface over entire time&lt;br&gt;&amp;nbsp; &amp;nbsp; &lt;b&gt;&lt;u&gt;self.hist_t&lt;/u&gt;&lt;/b&gt; = Analytical time history for the evolution of &#39;s&#39;." style="rounded=0;whiteSpace=wrap;html=1;align=left;" parent="WIyWlLk6GJQsqaUBKTNV-1" vertex="1">
          <mxGeometry x="100" y="95" width="320" height="98" as="geometry" />
        </mxCell>
        <mxCell id="KUYVFX4BnLb6LtAk-J63-68" value="&lt;span style=&quot;white-space: pre;&quot;&gt;&#x9;&lt;/span&gt;&lt;span style=&quot;white-space: pre;&quot;&gt;&#x9;&lt;/span&gt;&lt;span style=&quot;white-space: pre;&quot;&gt;&#x9;&lt;/span&gt;self.Tdist_Enthalpy(list)&lt;br&gt;&lt;span style=&quot;white-space: pre;&quot;&gt;&#x9;&lt;/span&gt;&lt;span style=&quot;white-space: pre;&quot;&gt;&#x9;&lt;/span&gt;&lt;span style=&quot;white-space: pre;&quot;&gt;&#x9;&lt;/span&gt;self.check_T(Ambient Temperature)&lt;br&gt;&lt;span style=&quot;white-space: pre;&quot;&gt;&#x9;&lt;/span&gt;&lt;span style=&quot;white-space: pre;&quot;&gt;&#x9;&lt;/span&gt;&lt;span style=&quot;white-space: pre;&quot;&gt;&#x9;&lt;/span&gt;self,formulate_s()" style="rounded=0;whiteSpace=wrap;html=1;align=left;" parent="WIyWlLk6GJQsqaUBKTNV-1" vertex="1">
          <mxGeometry x="420" y="105" width="320" height="88" as="geometry" />
        </mxCell>
        <mxCell id="JN7dd42MbDgEGxTATaaX-3" style="edgeStyle=orthogonalEdgeStyle;rounded=0;orthogonalLoop=1;jettySize=auto;html=1;entryX=1;entryY=0.5;entryDx=0;entryDy=0;" edge="1" parent="WIyWlLk6GJQsqaUBKTNV-1" source="KUYVFX4BnLb6LtAk-J63-219" target="KUYVFX4BnLb6LtAk-J63-221">
          <mxGeometry relative="1" as="geometry" />
        </mxCell>
        <mxCell id="KUYVFX4BnLb6LtAk-J63-219" value="Start" style="rounded=1;whiteSpace=wrap;html=1;arcSize=50;" parent="WIyWlLk6GJQsqaUBKTNV-1" vertex="1">
          <mxGeometry x="495" y="221" width="80" height="20" as="geometry" />
        </mxCell>
        <mxCell id="KUYVFX4BnLb6LtAk-J63-220" value="End" style="rounded=1;whiteSpace=wrap;html=1;arcSize=50;" parent="WIyWlLk6GJQsqaUBKTNV-1" vertex="1">
          <mxGeometry x="194.00000000000003" y="592" width="80" height="20" as="geometry" />
        </mxCell>
        <mxCell id="eg3Dcb_BBi-hNbYzrBa9-2" style="edgeStyle=orthogonalEdgeStyle;rounded=0;orthogonalLoop=1;jettySize=auto;html=1;exitX=0.5;exitY=1;exitDx=0;exitDy=0;" parent="WIyWlLk6GJQsqaUBKTNV-1" source="KUYVFX4BnLb6LtAk-J63-221" target="KUYVFX4BnLb6LtAk-J63-223" edge="1">
          <mxGeometry relative="1" as="geometry" />
        </mxCell>
        <mxCell id="KUYVFX4BnLb6LtAk-J63-221" value="F = I/I&lt;sub&gt;ref&lt;/sub&gt;" style="rounded=1;whiteSpace=wrap;html=1;" parent="WIyWlLk6GJQsqaUBKTNV-1" vertex="1">
          <mxGeometry x="339.75" y="221" width="90" height="20" as="geometry" />
        </mxCell>
        <mxCell id="KUYVFX4BnLb6LtAk-J63-222" style="edgeStyle=orthogonalEdgeStyle;rounded=0;orthogonalLoop=1;jettySize=auto;html=1;exitX=0.5;exitY=1;exitDx=0;exitDy=0;entryX=0.5;entryY=0;entryDx=0;entryDy=0;" parent="WIyWlLk6GJQsqaUBKTNV-1" source="KUYVFX4BnLb6LtAk-J63-223" target="KUYVFX4BnLb6LtAk-J63-239" edge="1">
          <mxGeometry relative="1" as="geometry" />
        </mxCell>
        <mxCell id="KUYVFX4BnLb6LtAk-J63-223" value="For i &amp;lt; len(&lt;u style=&quot;font-weight: bold;&quot;&gt;self.T&lt;/u&gt;)" style="shape=hexagon;perimeter=hexagonPerimeter2;whiteSpace=wrap;html=1;fixedSize=1;" parent="WIyWlLk6GJQsqaUBKTNV-1" vertex="1">
          <mxGeometry x="249.48000000000002" y="252" width="270" height="20" as="geometry" />
        </mxCell>
        <mxCell id="KUYVFX4BnLb6LtAk-J63-226" value="Update&lt;b&gt;&amp;nbsp;self.T[i] &lt;/b&gt;according to the formula (3.12a)" style="rounded=1;whiteSpace=wrap;html=1;" parent="WIyWlLk6GJQsqaUBKTNV-1" vertex="1">
          <mxGeometry x="476.5" y="297.5" width="167.42" height="43" as="geometry" />
        </mxCell>
        <mxCell id="eg3Dcb_BBi-hNbYzrBa9-7" style="edgeStyle=orthogonalEdgeStyle;rounded=0;orthogonalLoop=1;jettySize=auto;html=1;entryX=0;entryY=0.5;entryDx=0;entryDy=0;" parent="WIyWlLk6GJQsqaUBKTNV-1" source="KUYVFX4BnLb6LtAk-J63-239" target="KUYVFX4BnLb6LtAk-J63-226" edge="1">
          <mxGeometry relative="1" as="geometry" />
        </mxCell>
        <mxCell id="eg3Dcb_BBi-hNbYzrBa9-9" value="No" style="edgeLabel;html=1;align=center;verticalAlign=middle;resizable=0;points=[];" parent="eg3Dcb_BBi-hNbYzrBa9-7" vertex="1" connectable="0">
          <mxGeometry x="-0.1144" y="1" relative="1" as="geometry">
            <mxPoint as="offset" />
          </mxGeometry>
        </mxCell>
        <mxCell id="eg3Dcb_BBi-hNbYzrBa9-8" style="edgeStyle=orthogonalEdgeStyle;rounded=0;orthogonalLoop=1;jettySize=auto;html=1;entryX=0.5;entryY=0;entryDx=0;entryDy=0;" parent="WIyWlLk6GJQsqaUBKTNV-1" source="KUYVFX4BnLb6LtAk-J63-239" target="KUYVFX4BnLb6LtAk-J63-242" edge="1">
          <mxGeometry relative="1" as="geometry" />
        </mxCell>
        <mxCell id="eg3Dcb_BBi-hNbYzrBa9-10" value="Yes" style="edgeLabel;html=1;align=center;verticalAlign=middle;resizable=0;points=[];" parent="eg3Dcb_BBi-hNbYzrBa9-8" vertex="1" connectable="0">
          <mxGeometry x="-0.3563" y="-2" relative="1" as="geometry">
            <mxPoint as="offset" />
          </mxGeometry>
        </mxCell>
        <mxCell id="KUYVFX4BnLb6LtAk-J63-239" value="" style="rhombus;whiteSpace=wrap;html=1;" parent="WIyWlLk6GJQsqaUBKTNV-1" vertex="1">
          <mxGeometry x="352.92" y="294" width="62.56" height="50" as="geometry" />
        </mxCell>
        <mxCell id="KUYVFX4BnLb6LtAk-J63-240" value="&lt;font style=&quot;font-size: 10px;&quot;&gt;if i = &lt;br&gt;last node&lt;/font&gt;" style="text;html=1;strokeColor=none;fillColor=none;align=center;verticalAlign=middle;whiteSpace=wrap;rounded=0;" parent="WIyWlLk6GJQsqaUBKTNV-1" vertex="1">
          <mxGeometry x="353.92" y="299" width="60" height="30" as="geometry" />
        </mxCell>
        <mxCell id="eg3Dcb_BBi-hNbYzrBa9-12" style="edgeStyle=orthogonalEdgeStyle;rounded=0;orthogonalLoop=1;jettySize=auto;html=1;exitX=0.5;exitY=1;exitDx=0;exitDy=0;" parent="WIyWlLk6GJQsqaUBKTNV-1" source="KUYVFX4BnLb6LtAk-J63-242" target="KUYVFX4BnLb6LtAk-J63-252" edge="1">
          <mxGeometry relative="1" as="geometry" />
        </mxCell>
        <mxCell id="KUYVFX4BnLb6LtAk-J63-242" value="&lt;b&gt;self.T[i]&lt;/b&gt; = &lt;b&gt;ip.Ta&lt;/b&gt;" style="rounded=1;whiteSpace=wrap;html=1;" parent="WIyWlLk6GJQsqaUBKTNV-1" vertex="1">
          <mxGeometry x="323.91999999999996" y="381" width="120" height="23" as="geometry" />
        </mxCell>
        <mxCell id="KUYVFX4BnLb6LtAk-J63-251" style="edgeStyle=orthogonalEdgeStyle;rounded=0;orthogonalLoop=1;jettySize=auto;html=1;exitX=0.5;exitY=1;exitDx=0;exitDy=0;entryX=0.5;entryY=0;entryDx=0;entryDy=0;" parent="WIyWlLk6GJQsqaUBKTNV-1" source="KUYVFX4BnLb6LtAk-J63-252" target="KUYVFX4BnLb6LtAk-J63-254" edge="1">
          <mxGeometry relative="1" as="geometry" />
        </mxCell>
        <mxCell id="KUYVFX4BnLb6LtAk-J63-252" value="change the &lt;b&gt;&lt;u&gt;self.T&lt;/u&gt;&lt;/b&gt; array to column vector" style="rounded=1;whiteSpace=wrap;html=1;" parent="WIyWlLk6GJQsqaUBKTNV-1" vertex="1">
          <mxGeometry x="196.69" y="439" width="375.06" height="20" as="geometry" />
        </mxCell>
        <mxCell id="KUYVFX4BnLb6LtAk-J63-253" style="edgeStyle=orthogonalEdgeStyle;rounded=0;orthogonalLoop=1;jettySize=auto;html=1;exitX=0.5;exitY=1;exitDx=0;exitDy=0;entryX=0.5;entryY=0;entryDx=0;entryDy=0;" parent="WIyWlLk6GJQsqaUBKTNV-1" source="KUYVFX4BnLb6LtAk-J63-254" target="KUYVFX4BnLb6LtAk-J63-259" edge="1">
          <mxGeometry relative="1" as="geometry" />
        </mxCell>
        <mxCell id="KUYVFX4BnLb6LtAk-J63-254" value="Check the self.T" style="rounded=1;whiteSpace=wrap;html=1;" parent="WIyWlLk6GJQsqaUBKTNV-1" vertex="1">
          <mxGeometry x="249.54000000000002" y="475" width="269.94" height="20" as="geometry" />
        </mxCell>
        <mxCell id="KUYVFX4BnLb6LtAk-J63-255" style="edgeStyle=orthogonalEdgeStyle;rounded=0;orthogonalLoop=1;jettySize=auto;html=1;exitX=0;exitY=0.5;exitDx=0;exitDy=0;entryX=0.5;entryY=0;entryDx=0;entryDy=0;" parent="WIyWlLk6GJQsqaUBKTNV-1" source="KUYVFX4BnLb6LtAk-J63-259" target="KUYVFX4BnLb6LtAk-J63-220" edge="1">
          <mxGeometry relative="1" as="geometry" />
        </mxCell>
        <mxCell id="KUYVFX4BnLb6LtAk-J63-256" value="No" style="edgeLabel;html=1;align=center;verticalAlign=middle;resizable=0;points=[];" parent="KUYVFX4BnLb6LtAk-J63-255" vertex="1" connectable="0">
          <mxGeometry x="-0.3302" y="1" relative="1" as="geometry">
            <mxPoint as="offset" />
          </mxGeometry>
        </mxCell>
        <mxCell id="KUYVFX4BnLb6LtAk-J63-257" value="" style="edgeStyle=orthogonalEdgeStyle;rounded=0;orthogonalLoop=1;jettySize=auto;html=1;" parent="WIyWlLk6GJQsqaUBKTNV-1" source="KUYVFX4BnLb6LtAk-J63-259" target="KUYVFX4BnLb6LtAk-J63-265" edge="1">
          <mxGeometry relative="1" as="geometry" />
        </mxCell>
        <mxCell id="KUYVFX4BnLb6LtAk-J63-258" value="Yes" style="edgeLabel;html=1;align=center;verticalAlign=middle;resizable=0;points=[];" parent="KUYVFX4BnLb6LtAk-J63-257" vertex="1" connectable="0">
          <mxGeometry x="-0.1825" relative="1" as="geometry">
            <mxPoint as="offset" />
          </mxGeometry>
        </mxCell>
        <mxCell id="KUYVFX4BnLb6LtAk-J63-259" value="If self.T0 &amp;lt; ip.Ta" style="rhombus;whiteSpace=wrap;html=1;" parent="WIyWlLk6GJQsqaUBKTNV-1" vertex="1">
          <mxGeometry x="344.75" y="512" width="80" height="80" as="geometry" />
        </mxCell>
        <mxCell id="KUYVFX4BnLb6LtAk-J63-264" style="edgeStyle=orthogonalEdgeStyle;rounded=0;orthogonalLoop=1;jettySize=auto;html=1;exitX=0.5;exitY=1;exitDx=0;exitDy=0;entryX=1;entryY=0.5;entryDx=0;entryDy=0;" parent="WIyWlLk6GJQsqaUBKTNV-1" source="KUYVFX4BnLb6LtAk-J63-265" target="KUYVFX4BnLb6LtAk-J63-220" edge="1">
          <mxGeometry relative="1" as="geometry" />
        </mxCell>
        <mxCell id="KUYVFX4BnLb6LtAk-J63-265" value="print(&lt;b&gt;&lt;u&gt;self.T&lt;/u&gt;&lt;/b&gt;)&lt;br&gt;display error" style="rounded=1;whiteSpace=wrap;html=1;" parent="WIyWlLk6GJQsqaUBKTNV-1" vertex="1">
          <mxGeometry x="472.84000000000003" y="536" width="120" height="32" as="geometry" />
        </mxCell>
        <mxCell id="KUYVFX4BnLb6LtAk-J63-266" value="&lt;b&gt;&lt;font style=&quot;font-size: 13px;&quot;&gt;Tdist_Enthalpy (node_list):&lt;/font&gt;&lt;/b&gt;" style="text;html=1;strokeColor=none;fillColor=none;align=center;verticalAlign=middle;whiteSpace=wrap;rounded=0;" parent="WIyWlLk6GJQsqaUBKTNV-1" vertex="1">
          <mxGeometry x="100.00000000000001" y="195" width="190" height="30" as="geometry" />
        </mxCell>
        <mxCell id="eg3Dcb_BBi-hNbYzrBa9-11" style="edgeStyle=orthogonalEdgeStyle;rounded=0;orthogonalLoop=1;jettySize=auto;html=1;exitX=1;exitY=0.5;exitDx=0;exitDy=0;entryX=0;entryY=0.5;entryDx=0;entryDy=0;" parent="WIyWlLk6GJQsqaUBKTNV-1" source="KUYVFX4BnLb6LtAk-J63-223" target="KUYVFX4BnLb6LtAk-J63-223" edge="1">
          <mxGeometry relative="1" as="geometry">
            <Array as="points">
              <mxPoint x="660.5" y="262" />
              <mxPoint x="660.5" y="416" />
              <mxPoint x="179.5" y="416" />
              <mxPoint x="179.5" y="262" />
            </Array>
          </mxGeometry>
        </mxCell>
        <mxCell id="JN7dd42MbDgEGxTATaaX-0" value="&lt;b&gt;Attributes &lt;/b&gt;: -" style="rounded=0;whiteSpace=wrap;html=1;align=left;" vertex="1" parent="WIyWlLk6GJQsqaUBKTNV-1">
          <mxGeometry x="100" y="95" width="320" height="21" as="geometry" />
        </mxCell>
        <mxCell id="JN7dd42MbDgEGxTATaaX-1" value="&lt;b&gt;Methods&amp;nbsp;&lt;/b&gt;: -" style="rounded=0;whiteSpace=wrap;html=1;align=left;" vertex="1" parent="WIyWlLk6GJQsqaUBKTNV-1">
          <mxGeometry x="420" y="95" width="320" height="21" as="geometry" />
        </mxCell>
        <mxCell id="JN7dd42MbDgEGxTATaaX-4" style="edgeStyle=orthogonalEdgeStyle;rounded=0;orthogonalLoop=1;jettySize=auto;html=1;entryX=1;entryY=0.5;entryDx=0;entryDy=0;" edge="1" parent="WIyWlLk6GJQsqaUBKTNV-1" source="JN7dd42MbDgEGxTATaaX-5" target="JN7dd42MbDgEGxTATaaX-8">
          <mxGeometry relative="1" as="geometry" />
        </mxCell>
        <mxCell id="JN7dd42MbDgEGxTATaaX-5" value="Start" style="rounded=1;whiteSpace=wrap;html=1;arcSize=50;" vertex="1" parent="WIyWlLk6GJQsqaUBKTNV-1">
          <mxGeometry x="471.5" y="672" width="80" height="20" as="geometry" />
        </mxCell>
        <mxCell id="JN7dd42MbDgEGxTATaaX-6" value="End" style="rounded=1;whiteSpace=wrap;html=1;arcSize=50;" vertex="1" parent="WIyWlLk6GJQsqaUBKTNV-1">
          <mxGeometry x="170.50000000000003" y="1043" width="80" height="20" as="geometry" />
        </mxCell>
        <mxCell id="JN7dd42MbDgEGxTATaaX-7" style="edgeStyle=orthogonalEdgeStyle;rounded=0;orthogonalLoop=1;jettySize=auto;html=1;exitX=0.5;exitY=1;exitDx=0;exitDy=0;" edge="1" parent="WIyWlLk6GJQsqaUBKTNV-1" source="JN7dd42MbDgEGxTATaaX-8" target="JN7dd42MbDgEGxTATaaX-10">
          <mxGeometry relative="1" as="geometry" />
        </mxCell>
        <mxCell id="JN7dd42MbDgEGxTATaaX-8" value="F = I/I&lt;sub&gt;ref&lt;/sub&gt;" style="rounded=1;whiteSpace=wrap;html=1;" vertex="1" parent="WIyWlLk6GJQsqaUBKTNV-1">
          <mxGeometry x="316.25" y="672" width="90" height="20" as="geometry" />
        </mxCell>
        <mxCell id="JN7dd42MbDgEGxTATaaX-9" style="edgeStyle=orthogonalEdgeStyle;rounded=0;orthogonalLoop=1;jettySize=auto;html=1;exitX=0.5;exitY=1;exitDx=0;exitDy=0;entryX=0.5;entryY=0;entryDx=0;entryDy=0;" edge="1" parent="WIyWlLk6GJQsqaUBKTNV-1" source="JN7dd42MbDgEGxTATaaX-10" target="JN7dd42MbDgEGxTATaaX-16">
          <mxGeometry relative="1" as="geometry" />
        </mxCell>
        <mxCell id="JN7dd42MbDgEGxTATaaX-10" value="For i &amp;lt; len(&lt;u style=&quot;font-weight: bold;&quot;&gt;self.T&lt;/u&gt;)" style="shape=hexagon;perimeter=hexagonPerimeter2;whiteSpace=wrap;html=1;fixedSize=1;" vertex="1" parent="WIyWlLk6GJQsqaUBKTNV-1">
          <mxGeometry x="225.98000000000002" y="703" width="270" height="20" as="geometry" />
        </mxCell>
        <mxCell id="JN7dd42MbDgEGxTATaaX-11" value="Update&lt;b&gt;&amp;nbsp;self.T[i] &lt;/b&gt;according to the formula (3.12a)" style="rounded=1;whiteSpace=wrap;html=1;" vertex="1" parent="WIyWlLk6GJQsqaUBKTNV-1">
          <mxGeometry x="453" y="748.5" width="167.42" height="43" as="geometry" />
        </mxCell>
        <mxCell id="JN7dd42MbDgEGxTATaaX-12" style="edgeStyle=orthogonalEdgeStyle;rounded=0;orthogonalLoop=1;jettySize=auto;html=1;entryX=0;entryY=0.5;entryDx=0;entryDy=0;" edge="1" parent="WIyWlLk6GJQsqaUBKTNV-1" source="JN7dd42MbDgEGxTATaaX-16" target="JN7dd42MbDgEGxTATaaX-11">
          <mxGeometry relative="1" as="geometry" />
        </mxCell>
        <mxCell id="JN7dd42MbDgEGxTATaaX-13" value="No" style="edgeLabel;html=1;align=center;verticalAlign=middle;resizable=0;points=[];" vertex="1" connectable="0" parent="JN7dd42MbDgEGxTATaaX-12">
          <mxGeometry x="-0.1144" y="1" relative="1" as="geometry">
            <mxPoint as="offset" />
          </mxGeometry>
        </mxCell>
        <mxCell id="JN7dd42MbDgEGxTATaaX-14" style="edgeStyle=orthogonalEdgeStyle;rounded=0;orthogonalLoop=1;jettySize=auto;html=1;entryX=0.5;entryY=0;entryDx=0;entryDy=0;" edge="1" parent="WIyWlLk6GJQsqaUBKTNV-1" source="JN7dd42MbDgEGxTATaaX-16" target="JN7dd42MbDgEGxTATaaX-19">
          <mxGeometry relative="1" as="geometry" />
        </mxCell>
        <mxCell id="JN7dd42MbDgEGxTATaaX-15" value="Yes" style="edgeLabel;html=1;align=center;verticalAlign=middle;resizable=0;points=[];" vertex="1" connectable="0" parent="JN7dd42MbDgEGxTATaaX-14">
          <mxGeometry x="-0.3563" y="-2" relative="1" as="geometry">
            <mxPoint as="offset" />
          </mxGeometry>
        </mxCell>
        <mxCell id="JN7dd42MbDgEGxTATaaX-16" value="" style="rhombus;whiteSpace=wrap;html=1;" vertex="1" parent="WIyWlLk6GJQsqaUBKTNV-1">
          <mxGeometry x="329.42" y="745" width="62.56" height="50" as="geometry" />
        </mxCell>
        <mxCell id="JN7dd42MbDgEGxTATaaX-17" value="&lt;font style=&quot;font-size: 10px;&quot;&gt;if i = &lt;br&gt;last node&lt;/font&gt;" style="text;html=1;strokeColor=none;fillColor=none;align=center;verticalAlign=middle;whiteSpace=wrap;rounded=0;" vertex="1" parent="WIyWlLk6GJQsqaUBKTNV-1">
          <mxGeometry x="330.42" y="750" width="60" height="30" as="geometry" />
        </mxCell>
        <mxCell id="JN7dd42MbDgEGxTATaaX-18" style="edgeStyle=orthogonalEdgeStyle;rounded=0;orthogonalLoop=1;jettySize=auto;html=1;exitX=0.5;exitY=1;exitDx=0;exitDy=0;" edge="1" parent="WIyWlLk6GJQsqaUBKTNV-1" source="JN7dd42MbDgEGxTATaaX-19" target="JN7dd42MbDgEGxTATaaX-21">
          <mxGeometry relative="1" as="geometry" />
        </mxCell>
        <mxCell id="JN7dd42MbDgEGxTATaaX-19" value="&lt;b&gt;self.T[i]&lt;/b&gt; = &lt;b&gt;ip.Ta&lt;/b&gt;" style="rounded=1;whiteSpace=wrap;html=1;" vertex="1" parent="WIyWlLk6GJQsqaUBKTNV-1">
          <mxGeometry x="300.41999999999996" y="832" width="120" height="23" as="geometry" />
        </mxCell>
        <mxCell id="JN7dd42MbDgEGxTATaaX-20" style="edgeStyle=orthogonalEdgeStyle;rounded=0;orthogonalLoop=1;jettySize=auto;html=1;exitX=0.5;exitY=1;exitDx=0;exitDy=0;entryX=0.5;entryY=0;entryDx=0;entryDy=0;" edge="1" parent="WIyWlLk6GJQsqaUBKTNV-1" source="JN7dd42MbDgEGxTATaaX-21" target="JN7dd42MbDgEGxTATaaX-23">
          <mxGeometry relative="1" as="geometry" />
        </mxCell>
        <mxCell id="JN7dd42MbDgEGxTATaaX-21" value="change the &lt;b&gt;&lt;u&gt;self.T&lt;/u&gt;&lt;/b&gt; array to column vector" style="rounded=1;whiteSpace=wrap;html=1;" vertex="1" parent="WIyWlLk6GJQsqaUBKTNV-1">
          <mxGeometry x="173.19" y="890" width="375.06" height="20" as="geometry" />
        </mxCell>
        <mxCell id="JN7dd42MbDgEGxTATaaX-22" style="edgeStyle=orthogonalEdgeStyle;rounded=0;orthogonalLoop=1;jettySize=auto;html=1;exitX=0.5;exitY=1;exitDx=0;exitDy=0;entryX=0.5;entryY=0;entryDx=0;entryDy=0;" edge="1" parent="WIyWlLk6GJQsqaUBKTNV-1" source="JN7dd42MbDgEGxTATaaX-23" target="JN7dd42MbDgEGxTATaaX-28">
          <mxGeometry relative="1" as="geometry" />
        </mxCell>
        <mxCell id="JN7dd42MbDgEGxTATaaX-23" value="Check the self.T" style="rounded=1;whiteSpace=wrap;html=1;" vertex="1" parent="WIyWlLk6GJQsqaUBKTNV-1">
          <mxGeometry x="226.04000000000002" y="926" width="269.94" height="20" as="geometry" />
        </mxCell>
        <mxCell id="JN7dd42MbDgEGxTATaaX-24" style="edgeStyle=orthogonalEdgeStyle;rounded=0;orthogonalLoop=1;jettySize=auto;html=1;exitX=0;exitY=0.5;exitDx=0;exitDy=0;entryX=0.5;entryY=0;entryDx=0;entryDy=0;" edge="1" parent="WIyWlLk6GJQsqaUBKTNV-1" source="JN7dd42MbDgEGxTATaaX-28" target="JN7dd42MbDgEGxTATaaX-6">
          <mxGeometry relative="1" as="geometry" />
        </mxCell>
        <mxCell id="JN7dd42MbDgEGxTATaaX-25" value="No" style="edgeLabel;html=1;align=center;verticalAlign=middle;resizable=0;points=[];" vertex="1" connectable="0" parent="JN7dd42MbDgEGxTATaaX-24">
          <mxGeometry x="-0.3302" y="1" relative="1" as="geometry">
            <mxPoint as="offset" />
          </mxGeometry>
        </mxCell>
        <mxCell id="JN7dd42MbDgEGxTATaaX-26" value="" style="edgeStyle=orthogonalEdgeStyle;rounded=0;orthogonalLoop=1;jettySize=auto;html=1;" edge="1" parent="WIyWlLk6GJQsqaUBKTNV-1" source="JN7dd42MbDgEGxTATaaX-28" target="JN7dd42MbDgEGxTATaaX-30">
          <mxGeometry relative="1" as="geometry" />
        </mxCell>
        <mxCell id="JN7dd42MbDgEGxTATaaX-27" value="Yes" style="edgeLabel;html=1;align=center;verticalAlign=middle;resizable=0;points=[];" vertex="1" connectable="0" parent="JN7dd42MbDgEGxTATaaX-26">
          <mxGeometry x="-0.1825" relative="1" as="geometry">
            <mxPoint as="offset" />
          </mxGeometry>
        </mxCell>
        <mxCell id="JN7dd42MbDgEGxTATaaX-28" value="If self.T0 &amp;lt; ip.Ta" style="rhombus;whiteSpace=wrap;html=1;" vertex="1" parent="WIyWlLk6GJQsqaUBKTNV-1">
          <mxGeometry x="321.25" y="963" width="80" height="80" as="geometry" />
        </mxCell>
        <mxCell id="JN7dd42MbDgEGxTATaaX-29" style="edgeStyle=orthogonalEdgeStyle;rounded=0;orthogonalLoop=1;jettySize=auto;html=1;exitX=0.5;exitY=1;exitDx=0;exitDy=0;entryX=1;entryY=0.5;entryDx=0;entryDy=0;" edge="1" parent="WIyWlLk6GJQsqaUBKTNV-1" source="JN7dd42MbDgEGxTATaaX-30" target="JN7dd42MbDgEGxTATaaX-6">
          <mxGeometry relative="1" as="geometry" />
        </mxCell>
        <mxCell id="JN7dd42MbDgEGxTATaaX-30" value="print(&lt;b&gt;&lt;u&gt;self.T&lt;/u&gt;&lt;/b&gt;)&lt;br&gt;display error" style="rounded=1;whiteSpace=wrap;html=1;" vertex="1" parent="WIyWlLk6GJQsqaUBKTNV-1">
          <mxGeometry x="449.34000000000003" y="987" width="120" height="32" as="geometry" />
        </mxCell>
        <mxCell id="JN7dd42MbDgEGxTATaaX-31" style="edgeStyle=orthogonalEdgeStyle;rounded=0;orthogonalLoop=1;jettySize=auto;html=1;exitX=1;exitY=0.5;exitDx=0;exitDy=0;entryX=0;entryY=0.5;entryDx=0;entryDy=0;" edge="1" parent="WIyWlLk6GJQsqaUBKTNV-1" source="JN7dd42MbDgEGxTATaaX-10" target="JN7dd42MbDgEGxTATaaX-10">
          <mxGeometry relative="1" as="geometry">
            <Array as="points">
              <mxPoint x="637" y="713" />
              <mxPoint x="637" y="867" />
              <mxPoint x="156" y="867" />
              <mxPoint x="156" y="713" />
            </Array>
          </mxGeometry>
        </mxCell>
      </root>
    </mxGraphModel>
  </diagram>
</mxfile>
